<svg width="28" height="22" viewBox="0 0 28 22" fill="none" xmlns="http://www.w3.org/2000/svg">
  <!-- Fundo branco para a bola de futebol -->
  <circle cx="14" cy="11" r="10" stroke="black" stroke-width="1" fill="white"/>

  <!-- Hexágono central -->
  <polygon points="14,5 17,7.5 16,11 14,13 12,11 11,7.5" fill="black"/>

  <!-- Hexágonos ao redor do hexágono central -->
  <polygon points="11,7.5 8,7.5 6.5,9.5 8,11.5 11,11" fill="black"/>
  <polygon points="17,7.5 20,7.5 21.5,9.5 20,11.5 17,11" fill="black"/>
  <polygon points="14,5 11,3 8.5,4 7.5,6 8.5,7.5" fill="black"/>
  <polygon points="14,5 17,3 19.5,4 20.5,6 19.5,7.5" fill="black"/>
  <polygon points="11,11 8,11.5 6.5,13.5 8,15.5 11,14.5" fill="black"/>
  <polygon points="17,11 20,11.5 21.5,13.5 20,15.5 17,14.5" fill="black"/>
  <polygon points="11,14 8.5,15.5 7.5,18 9,19.5 12,18" fill="black"/>
  <polygon points="17,14 19.5,15.5 20.5,18 19,19.5 16,18" fill="black"/>

  <!-- Adicionando pequenos detalhes -->
  <polygon points="14,13 11,14.5 8.5,13.5 8,11.5 10.5,10.5" fill="white"/>
  <polygon points="14,13 17,14.5 19.5,13.5 20,11.5 17.5,10.5" fill="white"/>
</svg>
